<?xml version="1.0" encoding="utf-8" standalone="no"?>
<!DOCTYPE svg PUBLIC "-//W3C//DTD SVG 1.1//EN"
  "http://www.w3.org/Graphics/SVG/1.1/DTD/svg11.dtd">
<svg height="360pt" version="1.1" viewBox="0 0 504 360" width="504pt" xmlns="http://www.w3.org/2000/svg" xmlns:xlink="http://www.w3.org/1999/xlink">
 <metadata>
  <rdf:RDF xmlns:cc="http://creativecommons.org/ns#" xmlns:dc="http://purl.org/dc/elements/1.1/" xmlns:rdf="http://www.w3.org/1999/02/22-rdf-syntax-ns#">
   <cc:Work>
    <dc:type rdf:resource="http://purl.org/dc/dcmitype/StillImage"/>
    <dc:date>2022-04-27T10:47:07.520540</dc:date>
    <dc:format>image/svg+xml</dc:format>
    <dc:creator>
     <cc:Agent>
      <dc:title>Matplotlib v3.4.3, https://matplotlib.org/</dc:title>
     </cc:Agent>
    </dc:creator>
   </cc:Work>
  </rdf:RDF>
 </metadata>
 <defs>
  <style type="text/css">*{stroke-linecap:butt;stroke-linejoin:round;}</style>
 </defs>
 <g id="figure_1">
  <g id="patch_1">
   <path d="M 0 360 
L 504 360 
L 504 0 
L 0 0 
z
" style="fill:none;"/>
  </g>
  <g id="axes_1">
   <g id="patch_2">
    <path d="M 63 315 
L 453.6 315 
L 453.6 43.2 
L 63 43.2 
z
" style="fill:#ffffff;"/>
   </g>
   <g id="matplotlib.axis_1">
    <g id="xtick_1">
     <g id="line2d_1"/>
     <g id="text_1">
      <!-- 1950 -->
      <g style="fill:#656565;" transform="translate(100.095837 325.186719)scale(0.09 -0.09)">
       <defs>
        <path d="M 861 592 
L 1798 592 
L 1798 3290 
Q 1798 3446 1808 3619 
L 1142 3062 
Q 1101 3027 1057 3014 
Q 1014 3002 973 3002 
Q 909 3002 856 3029 
Q 803 3056 778 3091 
L 528 3434 
L 1939 4634 
L 2589 4634 
L 2589 592 
L 3421 592 
L 3421 0 
L 861 0 
L 861 592 
z
" id="Lato-Bold-31" transform="scale(0.015625)"/>
        <path d="M 1696 1846 
Q 1456 1846 1225 1929 
Q 995 2013 814 2181 
Q 634 2349 525 2597 
Q 416 2845 416 3178 
Q 416 3488 531 3760 
Q 646 4032 854 4237 
Q 1062 4442 1353 4560 
Q 1645 4678 1997 4678 
Q 2352 4678 2635 4566 
Q 2918 4454 3118 4252 
Q 3318 4051 3425 3769 
Q 3533 3488 3533 3152 
Q 3533 2938 3496 2746 
Q 3459 2554 3390 2376 
Q 3322 2198 3226 2030 
Q 3130 1862 3011 1693 
L 1952 182 
Q 1898 106 1790 53 
Q 1683 0 1546 0 
L 819 0 
L 2256 1795 
Q 2310 1862 2358 1926 
Q 2406 1990 2451 2054 
Q 2291 1952 2099 1899 
Q 1907 1846 1696 1846 
z
M 2774 3232 
Q 2774 3421 2716 3569 
Q 2659 3718 2553 3820 
Q 2448 3923 2302 3977 
Q 2157 4032 1984 4032 
Q 1805 4032 1661 3973 
Q 1517 3914 1416 3808 
Q 1315 3702 1260 3556 
Q 1206 3411 1206 3238 
Q 1206 2851 1406 2648 
Q 1606 2445 1974 2445 
Q 2166 2445 2315 2505 
Q 2464 2566 2566 2672 
Q 2669 2778 2721 2922 
Q 2774 3066 2774 3232 
z
" id="Lato-Bold-39" transform="scale(0.015625)"/>
        <path d="M 3165 4291 
Q 3165 4122 3057 4016 
Q 2950 3910 2701 3910 
L 1427 3910 
L 1261 2944 
Q 1574 3008 1834 3008 
Q 2198 3008 2475 2899 
Q 2752 2790 2941 2598 
Q 3130 2406 3226 2148 
Q 3322 1891 3322 1594 
Q 3322 1226 3192 922 
Q 3062 618 2832 402 
Q 2602 186 2286 67 
Q 1971 -51 1600 -51 
Q 1382 -51 1187 -6 
Q 992 38 821 113 
Q 650 189 504 286 
Q 358 384 243 493 
L 486 829 
Q 563 938 691 938 
Q 771 938 852 886 
Q 934 835 1043 774 
Q 1152 714 1296 662 
Q 1440 611 1645 611 
Q 1862 611 2028 681 
Q 2195 752 2305 878 
Q 2416 1005 2472 1179 
Q 2528 1354 2528 1558 
Q 2528 1936 2309 2149 
Q 2090 2362 1664 2362 
Q 1328 2362 989 2240 
L 496 2381 
L 880 4627 
L 3165 4627 
L 3165 4291 
z
" id="Lato-Bold-35" transform="scale(0.015625)"/>
        <path d="M 3552 2314 
Q 3552 1709 3422 1262 
Q 3293 816 3064 525 
Q 2835 234 2523 91 
Q 2211 -51 1850 -51 
Q 1488 -51 1179 91 
Q 870 234 643 525 
Q 416 816 288 1262 
Q 160 1709 160 2314 
Q 160 2922 288 3366 
Q 416 3811 643 4102 
Q 870 4394 1179 4536 
Q 1488 4678 1850 4678 
Q 2211 4678 2523 4536 
Q 2835 4394 3064 4102 
Q 3293 3811 3422 3366 
Q 3552 2922 3552 2314 
z
M 2736 2314 
Q 2736 2816 2662 3145 
Q 2589 3475 2465 3670 
Q 2342 3866 2182 3944 
Q 2022 4022 1850 4022 
Q 1680 4022 1521 3944 
Q 1363 3866 1241 3670 
Q 1120 3475 1048 3145 
Q 976 2816 976 2314 
Q 976 1811 1048 1481 
Q 1120 1152 1241 957 
Q 1363 762 1521 683 
Q 1680 605 1850 605 
Q 2022 605 2182 683 
Q 2342 762 2465 957 
Q 2589 1152 2662 1481 
Q 2736 1811 2736 2314 
z
" id="Lato-Bold-30" transform="scale(0.015625)"/>
       </defs>
       <use xlink:href="#Lato-Bold-31"/>
       <use x="58" xlink:href="#Lato-Bold-39"/>
       <use x="116" xlink:href="#Lato-Bold-35"/>
       <use x="174" xlink:href="#Lato-Bold-30"/>
      </g>
     </g>
    </g>
    <g id="xtick_2">
     <g id="line2d_2"/>
     <g id="text_2">
      <!-- 1952 -->
      <g style="fill:#656565;" transform="translate(159.658421 325.186719)scale(0.09 -0.09)">
       <defs>
        <path d="M 1926 4678 
Q 2246 4678 2512 4584 
Q 2778 4490 2966 4317 
Q 3155 4144 3260 3901 
Q 3366 3658 3366 3360 
Q 3366 3104 3291 2886 
Q 3216 2669 3089 2470 
Q 2963 2272 2793 2086 
Q 2624 1901 2438 1709 
L 1395 643 
Q 1549 688 1696 712 
Q 1843 736 1978 736 
L 3165 736 
Q 3293 736 3368 664 
Q 3443 592 3443 474 
L 3443 0 
L 269 0 
L 269 262 
Q 269 342 302 428 
Q 336 515 410 589 
L 1814 1997 
Q 1990 2176 2129 2339 
Q 2269 2502 2363 2662 
Q 2458 2822 2507 2987 
Q 2557 3152 2557 3334 
Q 2557 3501 2509 3627 
Q 2461 3754 2371 3840 
Q 2282 3926 2158 3969 
Q 2035 4013 1882 4013 
Q 1597 4013 1413 3869 
Q 1229 3725 1155 3482 
Q 1120 3360 1049 3307 
Q 979 3254 870 3254 
Q 822 3254 765 3264 
L 349 3338 
Q 397 3670 534 3921 
Q 672 4173 878 4341 
Q 1085 4509 1352 4593 
Q 1619 4678 1926 4678 
z
" id="Lato-Bold-32" transform="scale(0.015625)"/>
       </defs>
       <use xlink:href="#Lato-Bold-31"/>
       <use x="58" xlink:href="#Lato-Bold-39"/>
       <use x="116" xlink:href="#Lato-Bold-35"/>
       <use x="174" xlink:href="#Lato-Bold-32"/>
      </g>
     </g>
    </g>
    <g id="xtick_3">
     <g id="line2d_3"/>
     <g id="text_3">
      <!-- 1954 -->
      <g style="fill:#656565;" transform="translate(219.302597 325.186719)scale(0.09 -0.09)">
       <defs>
        <path d="M 3014 1744 
L 3597 1744 
L 3597 1286 
Q 3597 1222 3555 1176 
Q 3514 1130 3434 1130 
L 3014 1130 
L 3014 0 
L 2323 0 
L 2323 1130 
L 371 1130 
Q 291 1130 230 1179 
Q 170 1229 154 1302 
L 74 1702 
L 2266 4630 
L 3014 4630 
L 3014 1744 
z
M 2323 3258 
Q 2323 3360 2329 3478 
Q 2336 3597 2352 3725 
L 915 1744 
L 2323 1744 
L 2323 3258 
z
" id="Lato-Bold-34" transform="scale(0.015625)"/>
       </defs>
       <use xlink:href="#Lato-Bold-31"/>
       <use x="58" xlink:href="#Lato-Bold-39"/>
       <use x="116" xlink:href="#Lato-Bold-35"/>
       <use x="174" xlink:href="#Lato-Bold-34"/>
      </g>
     </g>
    </g>
    <g id="xtick_4">
     <g id="line2d_4"/>
     <g id="text_4">
      <!-- 1956 -->
      <g style="fill:#656565;" transform="translate(278.86518 325.186719)scale(0.09 -0.09)">
       <defs>
        <path d="M 2144 2890 
Q 2406 2890 2654 2803 
Q 2902 2717 3091 2542 
Q 3280 2368 3395 2109 
Q 3510 1850 3510 1504 
Q 3510 1181 3392 897 
Q 3274 614 3059 403 
Q 2845 192 2542 70 
Q 2240 -51 1875 -51 
Q 1504 -51 1209 67 
Q 915 186 707 398 
Q 499 611 388 910 
Q 278 1210 278 1574 
Q 278 1901 411 2245 
Q 544 2589 822 2960 
L 1926 4442 
Q 1984 4518 2094 4572 
Q 2205 4627 2349 4627 
L 3053 4627 
L 1680 2947 
Q 1635 2893 1595 2845 
Q 1555 2797 1517 2746 
Q 1651 2813 1806 2851 
Q 1962 2890 2144 2890 
z
M 1037 1453 
Q 1037 1261 1089 1102 
Q 1142 944 1246 832 
Q 1350 720 1504 657 
Q 1658 595 1859 595 
Q 2048 595 2206 659 
Q 2365 723 2478 838 
Q 2592 954 2656 1109 
Q 2720 1264 2720 1446 
Q 2720 1645 2659 1803 
Q 2598 1962 2486 2072 
Q 2374 2182 2217 2240 
Q 2061 2298 1872 2298 
Q 1683 2298 1529 2234 
Q 1376 2170 1265 2056 
Q 1155 1942 1096 1787 
Q 1037 1632 1037 1453 
z
" id="Lato-Bold-36" transform="scale(0.015625)"/>
       </defs>
       <use xlink:href="#Lato-Bold-31"/>
       <use x="58" xlink:href="#Lato-Bold-39"/>
       <use x="116" xlink:href="#Lato-Bold-35"/>
       <use x="174" xlink:href="#Lato-Bold-36"/>
      </g>
     </g>
    </g>
    <g id="xtick_5">
     <g id="line2d_5"/>
     <g id="text_5">
      <!-- 1958 -->
      <g style="fill:#656565;" transform="translate(338.509357 325.186719)scale(0.09 -0.09)">
       <defs>
        <path d="M 1856 -51 
Q 1498 -51 1202 45 
Q 906 141 694 317 
Q 483 493 366 742 
Q 250 992 250 1299 
Q 250 1709 451 1992 
Q 653 2275 1078 2413 
Q 739 2554 571 2813 
Q 403 3072 403 3437 
Q 403 3699 510 3926 
Q 618 4154 810 4322 
Q 1002 4490 1269 4584 
Q 1536 4678 1856 4678 
Q 2176 4678 2443 4584 
Q 2710 4490 2902 4322 
Q 3094 4154 3201 3926 
Q 3309 3699 3309 3437 
Q 3309 3072 3139 2813 
Q 2970 2554 2634 2413 
Q 3059 2275 3260 1992 
Q 3462 1709 3462 1299 
Q 3462 992 3345 742 
Q 3229 493 3017 317 
Q 2806 141 2510 45 
Q 2214 -51 1856 -51 
z
M 1856 566 
Q 2051 566 2198 622 
Q 2346 678 2446 777 
Q 2547 877 2598 1014 
Q 2650 1152 2650 1312 
Q 2650 1693 2438 1888 
Q 2227 2083 1856 2083 
Q 1485 2083 1273 1888 
Q 1062 1693 1062 1312 
Q 1062 1152 1113 1014 
Q 1165 877 1265 777 
Q 1366 678 1513 622 
Q 1661 566 1856 566 
z
M 1856 2704 
Q 2048 2704 2179 2765 
Q 2310 2826 2390 2926 
Q 2470 3027 2504 3156 
Q 2538 3286 2538 3424 
Q 2538 3555 2496 3673 
Q 2454 3792 2371 3883 
Q 2288 3974 2160 4028 
Q 2032 4083 1856 4083 
Q 1680 4083 1552 4028 
Q 1424 3974 1339 3883 
Q 1254 3792 1214 3673 
Q 1174 3555 1174 3424 
Q 1174 3286 1208 3156 
Q 1242 3027 1322 2926 
Q 1402 2826 1533 2765 
Q 1664 2704 1856 2704 
z
" id="Lato-Bold-38" transform="scale(0.015625)"/>
       </defs>
       <use xlink:href="#Lato-Bold-31"/>
       <use x="58" xlink:href="#Lato-Bold-39"/>
       <use x="116" xlink:href="#Lato-Bold-35"/>
       <use x="174" xlink:href="#Lato-Bold-38"/>
      </g>
     </g>
    </g>
    <g id="xtick_6">
     <g id="line2d_6"/>
     <g id="text_6">
      <!-- 1960 -->
      <g style="fill:#656565;" transform="translate(398.07194 325.186719)scale(0.09 -0.09)">
       <use xlink:href="#Lato-Bold-31"/>
       <use x="58" xlink:href="#Lato-Bold-39"/>
       <use x="116" xlink:href="#Lato-Bold-36"/>
       <use x="174" xlink:href="#Lato-Bold-30"/>
      </g>
     </g>
    </g>
   </g>
   <g id="matplotlib.axis_2">
    <g id="ytick_1">
     <g id="line2d_7"/>
     <g id="text_7">
      <!-- 100 -->
      <g style="fill:#656565;" transform="translate(43.84 307.896852)scale(0.09 -0.09)">
       <use xlink:href="#Lato-Bold-31"/>
       <use x="58" xlink:href="#Lato-Bold-30"/>
       <use x="116" xlink:href="#Lato-Bold-30"/>
      </g>
     </g>
    </g>
    <g id="ytick_2">
     <g id="line2d_8"/>
     <g id="text_8">
      <!-- 200 -->
      <g style="fill:#656565;" transform="translate(43.84 260.195904)scale(0.09 -0.09)">
       <use xlink:href="#Lato-Bold-32"/>
       <use x="58" xlink:href="#Lato-Bold-30"/>
       <use x="116" xlink:href="#Lato-Bold-30"/>
      </g>
     </g>
    </g>
    <g id="ytick_3">
     <g id="line2d_9"/>
     <g id="text_9">
      <!-- 300 -->
      <g style="fill:#656565;" transform="translate(43.84 212.494956)scale(0.09 -0.09)">
       <defs>
        <path d="M 2000 4678 
Q 2320 4678 2577 4587 
Q 2835 4496 3017 4334 
Q 3200 4173 3297 3955 
Q 3395 3738 3395 3485 
Q 3395 3264 3345 3096 
Q 3296 2928 3201 2803 
Q 3107 2678 2971 2592 
Q 2835 2506 2662 2448 
Q 3078 2317 3283 2048 
Q 3488 1779 3488 1373 
Q 3488 1027 3360 761 
Q 3232 496 3014 315 
Q 2797 134 2510 41 
Q 2224 -51 1904 -51 
Q 1555 -51 1296 29 
Q 1037 109 845 265 
Q 653 422 518 649 
Q 384 877 288 1174 
L 637 1318 
Q 726 1357 819 1357 
Q 902 1357 968 1321 
Q 1034 1286 1069 1219 
Q 1126 1107 1195 998 
Q 1264 890 1360 805 
Q 1456 720 1585 667 
Q 1715 614 1894 614 
Q 2096 614 2246 680 
Q 2397 746 2497 851 
Q 2598 957 2648 1086 
Q 2698 1216 2698 1347 
Q 2698 1514 2662 1650 
Q 2627 1786 2515 1882 
Q 2403 1978 2193 2032 
Q 1984 2086 1632 2086 
L 1632 2650 
Q 1923 2653 2115 2704 
Q 2307 2755 2420 2846 
Q 2534 2938 2579 3066 
Q 2624 3194 2624 3347 
Q 2624 3677 2445 3845 
Q 2266 4013 1955 4013 
Q 1674 4013 1488 3864 
Q 1302 3715 1229 3482 
Q 1190 3360 1123 3307 
Q 1056 3254 947 3254 
Q 896 3254 838 3264 
L 422 3338 
Q 470 3670 608 3921 
Q 746 4173 952 4341 
Q 1158 4509 1425 4593 
Q 1693 4678 2000 4678 
z
" id="Lato-Bold-33" transform="scale(0.015625)"/>
       </defs>
       <use xlink:href="#Lato-Bold-33"/>
       <use x="58" xlink:href="#Lato-Bold-30"/>
       <use x="116" xlink:href="#Lato-Bold-30"/>
      </g>
     </g>
    </g>
    <g id="ytick_4">
     <g id="line2d_10"/>
     <g id="text_10">
      <!-- 400 -->
      <g style="fill:#656565;" transform="translate(43.84 164.794009)scale(0.09 -0.09)">
       <use xlink:href="#Lato-Bold-34"/>
       <use x="58" xlink:href="#Lato-Bold-30"/>
       <use x="116" xlink:href="#Lato-Bold-30"/>
      </g>
     </g>
    </g>
    <g id="ytick_5">
     <g id="line2d_11"/>
     <g id="text_11">
      <!-- 500 -->
      <g style="fill:#656565;" transform="translate(43.84 117.093061)scale(0.09 -0.09)">
       <use xlink:href="#Lato-Bold-35"/>
       <use x="58" xlink:href="#Lato-Bold-30"/>
       <use x="116" xlink:href="#Lato-Bold-30"/>
      </g>
     </g>
    </g>
    <g id="ytick_6">
     <g id="line2d_12"/>
     <g id="text_12">
      <!-- 600 -->
      <g style="fill:#656565;" transform="translate(43.84 69.392113)scale(0.09 -0.09)">
       <use xlink:href="#Lato-Bold-36"/>
       <use x="58" xlink:href="#Lato-Bold-30"/>
       <use x="116" xlink:href="#Lato-Bold-30"/>
      </g>
     </g>
    </g>
   </g>
   <g id="line2d_13">
    <path clip-path="url(#p48544a44e5)" d="M 80.754545 298.829379 
L 83.283915 295.967322 
L 85.568508 289.289189 
L 88.097878 290.720218 
L 90.545655 294.536293 
L 95.522802 281.657038 
L 98.052172 281.657038 
L 100.581542 287.381151 
L 103.02932 295.490312 
L 105.55869 302.645455 
L 108.006467 295.967322 
L 110.535837 297.39835 
L 113.065207 292.151246 
L 115.349799 284.996104 
L 117.879169 287.858161 
L 120.326947 292.628256 
L 122.856317 281.180028 
L 125.304094 271.162829 
L 127.833464 271.162829 
L 130.362834 276.886943 
L 132.810612 288.81218 
L 135.339982 297.87536 
L 137.787759 285.473113 
L 142.846499 280.703019 
L 145.131091 267.346753 
L 147.660461 274.501895 
L 150.108239 270.20881 
L 152.637609 267.346753 
L 155.085386 257.329554 
L 157.614756 257.329554 
L 160.144126 264.484696 
L 162.591903 274.978905 
L 165.121273 282.611057 
L 167.569051 273.070867 
L 170.098421 270.68582 
L 172.627791 266.392734 
L 174.993976 260.191611 
L 177.523346 265.915725 
L 179.971123 264.961706 
L 182.500493 248.266374 
L 187.47764 236.818147 
L 190.00701 252.559459 
L 194.984158 270.20881 
L 197.431935 259.714602 
L 199.961305 258.760583 
L 202.490675 258.760583 
L 204.775267 239.680204 
L 207.304637 240.157213 
L 209.752415 243.01927 
L 212.281785 236.341137 
L 214.729562 226.323938 
L 217.258932 222.507862 
L 219.788302 239.203194 
L 222.23608 251.605441 
L 224.76545 266.392734 
L 227.213227 256.375535 
L 229.742597 254.944507 
L 232.271967 262.576658 
L 234.556559 240.157213 
L 237.085929 243.973289 
L 239.533707 240.634223 
L 242.063077 226.323938 
L 244.510854 208.197578 
L 247.040224 212.490663 
L 249.569594 228.708986 
L 252.017371 243.01927 
L 254.546741 255.421516 
L 256.994519 243.01927 
L 259.523889 236.818147 
L 262.053259 241.111232 
L 264.337851 224.89291 
L 266.867221 223.938891 
L 269.314998 223.461881 
L 271.844368 201.996455 
L 274.292146 178.622991 
L 276.821516 186.732152 
L 279.350886 203.427483 
L 281.798663 221.553843 
L 284.328033 239.203194 
L 286.77581 219.645806 
L 289.30518 216.783749 
L 291.83455 220.122815 
L 294.200735 201.042436 
L 296.730105 202.950474 
L 299.177883 200.565426 
L 301.707253 173.852896 
L 304.15503 155.249526 
L 306.6844 159.065602 
L 311.661547 206.28954 
L 314.190917 222.984872 
L 316.638695 206.28954 
L 319.168065 201.996455 
L 321.697435 208.674588 
L 323.982027 182.439066 
L 326.511397 186.255142 
L 328.959174 182.916076 
L 331.488544 150.956441 
L 333.936322 130.445033 
L 336.465692 129.491014 
L 338.995062 159.542611 
L 341.442839 186.732152 
L 343.972209 206.76655 
L 346.419987 191.979256 
L 348.949357 190.071218 
L 351.478727 200.565426 
L 353.763319 179.577009 
L 356.292689 186.255142 
L 358.740466 179.1 
L 361.269836 144.755318 
L 363.717614 118.042787 
L 366.246984 111.364654 
L 368.776354 159.542611 
L 371.224131 181.008038 
L 373.753501 204.381502 
L 376.201278 191.502246 
L 378.730648 180.531028 
L 381.260018 189.117199 
L 383.544611 158.588592 
L 386.073981 163.358687 
L 388.521758 151.91046 
L 391.051128 127.105967 
L 393.498905 90.853247 
L 396.028275 85.606143 
L 398.557645 131.399052 
L 401.005423 158.111583 
L 403.534793 179.577009 
L 405.98257 159.065602 
L 408.51194 153.341488 
L 411.04131 165.743735 
L 413.407495 152.387469 
L 415.936865 132.353071 
L 418.384642 127.105967 
L 420.914012 97.05437 
L 423.36179 55.554545 
L 425.89116 63.186697 
L 428.42053 109.933626 
L 430.868307 132.353071 
L 433.397677 166.220744 
L 435.845455 146.186346 
L 435.845455 146.186346 
" style="fill:none;stroke:#003469;stroke-linecap:square;stroke-width:2.5;"/>
   </g>
   <g id="patch_3">
    <path d="M 63 315 
L 63 43.2 
" style="fill:none;stroke:#656565;stroke-linecap:square;stroke-linejoin:miter;stroke-width:0.8;"/>
   </g>
   <g id="patch_4">
    <path d="M 63 315 
L 453.6 315 
" style="fill:none;stroke:#656565;stroke-linecap:square;stroke-linejoin:miter;stroke-width:0.8;"/>
   </g>
   <g id="text_13">
    <!-- Air Passenger Proportion by Month -->
    <g transform="translate(63 37.2)scale(0.15 -0.15)">
     <defs>
      <path d="M 4534 0 
L 3869 0 
Q 3757 0 3685 56 
Q 3613 112 3581 195 
L 3235 1139 
L 1318 1139 
L 973 195 
Q 947 122 872 61 
Q 797 0 688 0 
L 19 0 
L 1837 4627 
L 2717 4627 
L 4534 0 
z
M 1539 1747 
L 3014 1747 
L 2451 3286 
Q 2413 3389 2366 3528 
Q 2320 3667 2275 3830 
Q 2230 3667 2187 3526 
Q 2144 3386 2102 3280 
L 1539 1747 
z
" id="Lato-Bold-41" transform="scale(0.015625)"/>
      <path d="M 1264 3283 
L 1264 0 
L 474 0 
L 474 3283 
L 1264 3283 
z
M 1382 4240 
Q 1382 4138 1340 4048 
Q 1299 3958 1230 3891 
Q 1162 3824 1069 3784 
Q 976 3744 870 3744 
Q 768 3744 677 3784 
Q 586 3824 518 3891 
Q 451 3958 411 4048 
Q 371 4138 371 4240 
Q 371 4346 411 4438 
Q 451 4531 518 4598 
Q 586 4666 677 4706 
Q 768 4746 870 4746 
Q 976 4746 1069 4706 
Q 1162 4666 1230 4598 
Q 1299 4531 1340 4438 
Q 1382 4346 1382 4240 
z
" id="Lato-Bold-69" transform="scale(0.015625)"/>
      <path d="M 422 0 
L 422 3283 
L 886 3283 
Q 1008 3283 1056 3238 
Q 1104 3194 1120 3085 
L 1168 2688 
Q 1344 2992 1581 3168 
Q 1818 3344 2112 3344 
Q 2355 3344 2515 3232 
L 2413 2640 
Q 2403 2582 2371 2558 
Q 2339 2534 2285 2534 
Q 2237 2534 2153 2556 
Q 2070 2579 1933 2579 
Q 1686 2579 1510 2443 
Q 1334 2307 1213 2045 
L 1213 0 
L 422 0 
z
" id="Lato-Bold-72" transform="scale(0.015625)"/>
      <path id="Lato-Bold-20" transform="scale(0.015625)"/>
      <path d="M 1357 1629 
L 1357 0 
L 496 0 
L 496 4627 
L 2003 4627 
Q 2467 4627 2806 4518 
Q 3146 4410 3366 4214 
Q 3587 4019 3692 3747 
Q 3798 3475 3798 3152 
Q 3798 2816 3686 2536 
Q 3574 2256 3350 2054 
Q 3126 1853 2790 1741 
Q 2454 1629 2003 1629 
L 1357 1629 
z
M 1357 2301 
L 2003 2301 
Q 2240 2301 2416 2360 
Q 2592 2419 2707 2529 
Q 2822 2640 2880 2798 
Q 2938 2957 2938 3152 
Q 2938 3338 2880 3488 
Q 2822 3638 2707 3744 
Q 2592 3850 2416 3906 
Q 2240 3962 2003 3962 
L 1357 3962 
L 1357 2301 
z
" id="Lato-Bold-50" transform="scale(0.015625)"/>
      <path d="M 2995 0 
L 2640 0 
Q 2528 0 2464 33 
Q 2400 67 2368 170 
L 2298 403 
Q 2173 291 2053 206 
Q 1933 122 1805 64 
Q 1677 6 1533 -22 
Q 1389 -51 1213 -51 
Q 1005 -51 829 5 
Q 653 61 526 173 
Q 400 285 329 451 
Q 259 618 259 838 
Q 259 1024 356 1205 
Q 454 1386 681 1531 
Q 909 1677 1286 1773 
Q 1664 1869 2224 1882 
L 2224 2074 
Q 2224 2403 2085 2561 
Q 1946 2720 1680 2720 
Q 1488 2720 1360 2675 
Q 1232 2630 1137 2574 
Q 1043 2518 963 2473 
Q 883 2429 787 2429 
Q 707 2429 649 2470 
Q 592 2512 557 2573 
L 413 2826 
Q 979 3344 1779 3344 
Q 2067 3344 2292 3249 
Q 2518 3155 2675 2987 
Q 2832 2819 2913 2585 
Q 2995 2352 2995 2074 
L 2995 0 
z
M 1459 493 
Q 1581 493 1683 515 
Q 1786 538 1877 582 
Q 1968 627 2053 692 
Q 2138 758 2224 848 
L 2224 1402 
Q 1878 1386 1646 1342 
Q 1414 1299 1273 1232 
Q 1133 1165 1073 1075 
Q 1014 986 1014 880 
Q 1014 672 1137 582 
Q 1261 493 1459 493 
z
" id="Lato-Bold-61" transform="scale(0.015625)"/>
      <path d="M 2371 2643 
Q 2339 2592 2304 2571 
Q 2269 2550 2214 2550 
Q 2157 2550 2091 2582 
Q 2026 2614 1939 2654 
Q 1853 2694 1742 2726 
Q 1632 2758 1482 2758 
Q 1248 2758 1113 2659 
Q 979 2560 979 2400 
Q 979 2294 1048 2222 
Q 1117 2150 1230 2096 
Q 1344 2042 1488 1998 
Q 1632 1955 1782 1904 
Q 1933 1853 2077 1787 
Q 2221 1722 2334 1621 
Q 2448 1520 2517 1379 
Q 2586 1238 2586 1040 
Q 2586 803 2499 603 
Q 2413 403 2246 257 
Q 2080 112 1835 30 
Q 1590 -51 1274 -51 
Q 1104 -51 942 -20 
Q 781 10 632 64 
Q 483 118 356 192 
Q 230 266 134 352 
L 317 653 
Q 352 707 400 736 
Q 448 765 522 765 
Q 595 765 660 723 
Q 726 682 812 634 
Q 899 586 1016 544 
Q 1133 502 1312 502 
Q 1453 502 1553 536 
Q 1654 570 1720 624 
Q 1786 678 1816 750 
Q 1846 822 1846 899 
Q 1846 1014 1777 1088 
Q 1709 1162 1595 1216 
Q 1482 1270 1336 1313 
Q 1190 1357 1038 1408 
Q 886 1459 740 1528 
Q 595 1597 481 1702 
Q 368 1808 299 1961 
Q 230 2115 230 2333 
Q 230 2534 310 2716 
Q 390 2899 545 3035 
Q 701 3171 933 3252 
Q 1165 3334 1469 3334 
Q 1808 3334 2086 3222 
Q 2365 3110 2550 2928 
L 2371 2643 
z
" id="Lato-Bold-73" transform="scale(0.015625)"/>
      <path d="M 1779 3334 
Q 2090 3334 2350 3235 
Q 2611 3136 2800 2945 
Q 2989 2755 3094 2478 
Q 3200 2202 3200 1846 
Q 3200 1757 3192 1697 
Q 3184 1638 3163 1604 
Q 3142 1571 3107 1556 
Q 3072 1542 3018 1542 
L 989 1542 
Q 1024 1037 1261 800 
Q 1498 563 1888 563 
Q 2080 563 2219 608 
Q 2358 653 2462 707 
Q 2566 762 2644 806 
Q 2723 851 2797 851 
Q 2845 851 2880 832 
Q 2915 813 2941 778 
L 3171 490 
Q 3040 336 2877 232 
Q 2714 128 2536 65 
Q 2358 3 2174 -22 
Q 1990 -48 1818 -48 
Q 1475 -48 1180 65 
Q 886 179 668 401 
Q 451 624 326 952 
Q 202 1280 202 1712 
Q 202 2048 310 2344 
Q 419 2640 622 2859 
Q 826 3078 1118 3206 
Q 1411 3334 1779 3334 
z
M 1795 2768 
Q 1450 2768 1254 2573 
Q 1059 2378 1005 2019 
L 2490 2019 
Q 2490 2173 2448 2309 
Q 2406 2445 2320 2547 
Q 2234 2650 2102 2709 
Q 1971 2768 1795 2768 
z
" id="Lato-Bold-65" transform="scale(0.015625)"/>
      <path d="M 422 0 
L 422 3283 
L 906 3283 
Q 1059 3283 1107 3139 
L 1162 2880 
Q 1261 2982 1371 3065 
Q 1482 3149 1605 3209 
Q 1728 3270 1869 3302 
Q 2010 3334 2176 3334 
Q 2445 3334 2653 3243 
Q 2861 3152 3000 2987 
Q 3139 2822 3211 2593 
Q 3283 2365 3283 2090 
L 3283 0 
L 2493 0 
L 2493 2090 
Q 2493 2390 2353 2555 
Q 2214 2720 1936 2720 
Q 1731 2720 1552 2627 
Q 1373 2534 1213 2374 
L 1213 0 
L 422 0 
z
" id="Lato-Bold-6e" transform="scale(0.015625)"/>
      <path d="M 1558 3341 
Q 1770 3341 1955 3297 
Q 2141 3254 2294 3171 
L 3238 3171 
L 3238 2877 
Q 3238 2803 3200 2761 
Q 3162 2720 3069 2704 
L 2774 2650 
Q 2806 2566 2824 2473 
Q 2842 2381 2842 2278 
Q 2842 2035 2744 1838 
Q 2646 1642 2475 1504 
Q 2304 1366 2069 1291 
Q 1834 1216 1558 1216 
Q 1373 1216 1197 1251 
Q 1043 1158 1043 1043 
Q 1043 944 1134 897 
Q 1226 851 1374 832 
Q 1523 813 1712 808 
Q 1901 803 2099 787 
Q 2298 771 2486 731 
Q 2675 691 2824 604 
Q 2973 518 3064 369 
Q 3155 221 3155 -13 
Q 3155 -230 3048 -435 
Q 2941 -640 2737 -800 
Q 2534 -960 2240 -1057 
Q 1946 -1155 1568 -1155 
Q 1194 -1155 918 -1083 
Q 643 -1011 462 -891 
Q 282 -771 192 -614 
Q 102 -458 102 -288 
Q 102 -58 243 99 
Q 384 256 634 349 
Q 512 416 438 528 
Q 365 640 365 819 
Q 365 893 390 971 
Q 416 1050 469 1126 
Q 522 1203 602 1272 
Q 682 1341 790 1395 
Q 541 1530 398 1754 
Q 256 1978 256 2278 
Q 256 2522 353 2718 
Q 451 2915 625 3054 
Q 800 3194 1038 3267 
Q 1277 3341 1558 3341 
z
M 2426 -147 
Q 2426 -51 2368 9 
Q 2310 70 2211 104 
Q 2112 138 1979 154 
Q 1846 170 1697 178 
Q 1549 186 1390 194 
Q 1232 202 1085 221 
Q 950 147 868 46 
Q 787 -54 787 -186 
Q 787 -272 830 -347 
Q 874 -422 968 -476 
Q 1062 -531 1212 -561 
Q 1363 -592 1581 -592 
Q 1802 -592 1962 -558 
Q 2122 -525 2226 -465 
Q 2330 -406 2378 -324 
Q 2426 -243 2426 -147 
z
M 1558 1722 
Q 1706 1722 1814 1762 
Q 1923 1802 1995 1872 
Q 2067 1942 2104 2041 
Q 2141 2141 2141 2259 
Q 2141 2502 1995 2644 
Q 1850 2787 1558 2787 
Q 1267 2787 1121 2644 
Q 976 2502 976 2259 
Q 976 2144 1013 2045 
Q 1050 1946 1122 1874 
Q 1194 1802 1304 1762 
Q 1414 1722 1558 1722 
z
" id="Lato-Bold-67" transform="scale(0.015625)"/>
      <path d="M 1824 3334 
Q 2192 3334 2491 3216 
Q 2790 3098 3001 2880 
Q 3213 2662 3328 2348 
Q 3443 2035 3443 1648 
Q 3443 1258 3328 944 
Q 3213 630 3001 409 
Q 2790 189 2491 70 
Q 2192 -48 1824 -48 
Q 1456 -48 1155 70 
Q 854 189 641 409 
Q 429 630 312 944 
Q 195 1258 195 1648 
Q 195 2035 312 2348 
Q 429 2662 641 2880 
Q 854 3098 1155 3216 
Q 1456 3334 1824 3334 
z
M 1824 560 
Q 2234 560 2430 835 
Q 2627 1110 2627 1642 
Q 2627 2173 2430 2451 
Q 2234 2730 1824 2730 
Q 1408 2730 1209 2450 
Q 1011 2170 1011 1642 
Q 1011 1114 1209 837 
Q 1408 560 1824 560 
z
" id="Lato-Bold-6f" transform="scale(0.015625)"/>
      <path d="M 422 -1072 
L 422 3283 
L 906 3283 
Q 982 3283 1036 3248 
Q 1091 3213 1107 3139 
L 1171 2835 
Q 1370 3062 1627 3203 
Q 1885 3344 2230 3344 
Q 2499 3344 2721 3232 
Q 2944 3120 3105 2907 
Q 3267 2694 3355 2382 
Q 3443 2070 3443 1667 
Q 3443 1299 3344 985 
Q 3245 672 3061 441 
Q 2877 211 2616 81 
Q 2355 -48 2032 -48 
Q 1754 -48 1560 37 
Q 1366 122 1213 272 
L 1213 -1072 
L 422 -1072 
z
M 1958 2720 
Q 1712 2720 1537 2616 
Q 1363 2512 1213 2323 
L 1213 851 
Q 1347 685 1505 619 
Q 1664 554 1846 554 
Q 2026 554 2171 621 
Q 2317 688 2417 825 
Q 2518 963 2572 1172 
Q 2627 1382 2627 1667 
Q 2627 1955 2580 2155 
Q 2534 2355 2448 2480 
Q 2362 2605 2238 2662 
Q 2115 2720 1958 2720 
z
" id="Lato-Bold-70" transform="scale(0.015625)"/>
      <path d="M 1501 -51 
Q 1075 -51 844 190 
Q 614 432 614 858 
L 614 2691 
L 282 2691 
Q 218 2691 171 2732 
Q 125 2774 125 2858 
L 125 3171 
L 653 3258 
L 819 4154 
Q 832 4218 878 4253 
Q 925 4288 995 4288 
L 1405 4288 
L 1405 3254 
L 2269 3254 
L 2269 2691 
L 1405 2691 
L 1405 912 
Q 1405 758 1481 672 
Q 1558 586 1686 586 
Q 1760 586 1809 603 
Q 1859 621 1896 640 
Q 1933 659 1961 676 
Q 1990 694 2019 694 
Q 2054 694 2076 676 
Q 2099 659 2125 624 
L 2362 240 
Q 2189 96 1965 22 
Q 1741 -51 1501 -51 
z
" id="Lato-Bold-74" transform="scale(0.015625)"/>
      <path d="M 432 0 
L 432 4755 
L 1222 4755 
L 1222 2880 
Q 1418 3088 1664 3211 
Q 1910 3334 2240 3334 
Q 2509 3334 2731 3224 
Q 2954 3114 3115 2902 
Q 3277 2691 3365 2380 
Q 3453 2070 3453 1667 
Q 3453 1299 3353 985 
Q 3254 672 3070 441 
Q 2886 211 2625 81 
Q 2365 -48 2042 -48 
Q 1891 -48 1766 -17 
Q 1642 13 1539 67 
Q 1437 122 1349 200 
Q 1261 278 1181 374 
L 1146 154 
Q 1126 70 1080 35 
Q 1034 0 954 0 
L 432 0 
z
M 1968 2720 
Q 1722 2720 1547 2616 
Q 1373 2512 1222 2323 
L 1222 851 
Q 1357 685 1515 619 
Q 1674 554 1859 554 
Q 2038 554 2182 621 
Q 2326 688 2427 825 
Q 2528 963 2582 1172 
Q 2637 1382 2637 1667 
Q 2637 1955 2590 2155 
Q 2544 2355 2457 2480 
Q 2371 2605 2248 2662 
Q 2125 2720 1968 2720 
z
" id="Lato-Bold-62" transform="scale(0.015625)"/>
      <path d="M 1587 -902 
Q 1552 -986 1496 -1029 
Q 1440 -1072 1325 -1072 
L 736 -1072 
L 1350 243 
L 22 3283 
L 714 3283 
Q 810 3283 861 3238 
Q 912 3194 938 3136 
L 1638 1434 
Q 1674 1350 1699 1260 
Q 1725 1171 1744 1082 
Q 1770 1174 1800 1260 
Q 1830 1347 1866 1437 
L 2525 3136 
Q 2550 3200 2609 3241 
Q 2669 3283 2742 3283 
L 3376 3283 
L 1587 -902 
z
" id="Lato-Bold-79" transform="scale(0.015625)"/>
      <path d="M 2790 1920 
Q 2845 1818 2891 1707 
Q 2938 1597 2982 1485 
Q 3027 1600 3075 1712 
Q 3123 1824 3178 1926 
L 4547 4490 
Q 4573 4538 4600 4566 
Q 4627 4595 4660 4608 
Q 4694 4621 4736 4624 
Q 4778 4627 4835 4627 
L 5485 4627 
L 5485 0 
L 4726 0 
L 4726 2989 
Q 4726 3072 4731 3171 
Q 4736 3270 4746 3373 
L 3347 749 
Q 3299 659 3222 609 
Q 3146 560 3043 560 
L 2925 560 
Q 2822 560 2745 609 
Q 2669 659 2621 749 
L 1203 3382 
Q 1216 3277 1221 3176 
Q 1226 3075 1226 2989 
L 1226 0 
L 467 0 
L 467 4627 
L 1117 4627 
Q 1174 4627 1216 4624 
Q 1258 4621 1291 4608 
Q 1325 4595 1353 4566 
Q 1382 4538 1408 4490 
L 2790 1920 
L 2790 1920 
z
" id="Lato-Bold-4d" transform="scale(0.015625)"/>
      <path d="M 422 0 
L 422 4755 
L 1213 4755 
L 1213 2928 
Q 1405 3110 1635 3222 
Q 1866 3334 2176 3334 
Q 2445 3334 2653 3243 
Q 2861 3152 3000 2987 
Q 3139 2822 3211 2593 
Q 3283 2365 3283 2090 
L 3283 0 
L 2493 0 
L 2493 2090 
Q 2493 2390 2353 2555 
Q 2214 2720 1936 2720 
Q 1731 2720 1552 2627 
Q 1373 2534 1213 2374 
L 1213 0 
L 422 0 
z
" id="Lato-Bold-68" transform="scale(0.015625)"/>
     </defs>
     <use xlink:href="#Lato-Bold-41"/>
     <use x="71.000015" xlink:href="#Lato-Bold-69"/>
     <use x="98.100021" xlink:href="#Lato-Bold-72"/>
     <use x="138.950027" xlink:href="#Lato-Bold-20"/>
     <use x="158.250031" xlink:href="#Lato-Bold-50"/>
     <use x="220.750046" xlink:href="#Lato-Bold-61"/>
     <use x="273.100052" xlink:href="#Lato-Bold-73"/>
     <use x="316.800049" xlink:href="#Lato-Bold-73"/>
     <use x="360.500046" xlink:href="#Lato-Bold-65"/>
     <use x="413.950058" xlink:href="#Lato-Bold-6e"/>
     <use x="470.800064" xlink:href="#Lato-Bold-67"/>
     <use x="522.550064" xlink:href="#Lato-Bold-65"/>
     <use x="576.000076" xlink:href="#Lato-Bold-72"/>
     <use x="616.850082" xlink:href="#Lato-Bold-20"/>
     <use x="636.150085" xlink:href="#Lato-Bold-50"/>
     <use x="698.650101" xlink:href="#Lato-Bold-72"/>
     <use x="739.500107" xlink:href="#Lato-Bold-6f"/>
     <use x="796.350113" xlink:href="#Lato-Bold-70"/>
     <use x="852.900116" xlink:href="#Lato-Bold-6f"/>
     <use x="909.750122" xlink:href="#Lato-Bold-72"/>
     <use x="950.600128" xlink:href="#Lato-Bold-74"/>
     <use x="989.300125" xlink:href="#Lato-Bold-69"/>
     <use x="1016.400131" xlink:href="#Lato-Bold-6f"/>
     <use x="1073.250137" xlink:href="#Lato-Bold-6e"/>
     <use x="1130.100143" xlink:href="#Lato-Bold-20"/>
     <use x="1149.400146" xlink:href="#Lato-Bold-62"/>
     <use x="1206.400146" xlink:href="#Lato-Bold-79"/>
     <use x="1259.750153" xlink:href="#Lato-Bold-20"/>
     <use x="1279.050156" xlink:href="#Lato-Bold-4d"/>
     <use x="1372.050171" xlink:href="#Lato-Bold-6f"/>
     <use x="1428.900177" xlink:href="#Lato-Bold-6e"/>
     <use x="1485.750183" xlink:href="#Lato-Bold-74"/>
     <use x="1524.45018" xlink:href="#Lato-Bold-68"/>
    </g>
   </g>
  </g>
 </g>
 <defs>
  <clipPath id="p48544a44e5">
   <rect height="271.8" width="390.6" x="63" y="43.2"/>
  </clipPath>
 </defs>
</svg>
